<?xml version="1.0" encoding="UTF-8" standalone="no"?>
<!-- Created with Inkscape (http://www.inkscape.org/) -->

<svg
   version="1.1"
   id="svg1"
   width="460"
   height="100"
   viewBox="0 0 460 100"
   sodipodi:docname="Copia de Logo cento.pdf.2024_04_02_10_42_11.0.svg"
   inkscape:version="1.3.1 (91b66b0783, 2023-11-16)"
   xmlns:inkscape="http://www.inkscape.org/namespaces/inkscape"
   xmlns:sodipodi="http://sodipodi.sourceforge.net/DTD/sodipodi-0.dtd"
   xmlns="http://www.w3.org/2000/svg"
   xmlns:svg="http://www.w3.org/2000/svg">
  <defs
     id="defs1">
    <rect
       x="428.15833"
       y="220.79433"
       width="227.24088"
       height="74.135315"
       id="rect12" />
    <clipPath
       clipPathUnits="userSpaceOnUse"
       id="clipPath2">
      <path
         d="M 0,0 H 1746.875 V 1240.625 H 0 Z"
         transform="scale(0.31999999)"
         clip-rule="evenodd"
         id="path2" />
    </clipPath>
    <clipPath
       clipPathUnits="userSpaceOnUse"
       id="clipPath4">
      <path
         d="M 0,0 H 1746.875 V 1240.625 H 0 Z"
         transform="scale(0.31999999)"
         clip-rule="evenodd"
         id="path4" />
    </clipPath>
    <clipPath
       clipPathUnits="userSpaceOnUse"
       id="clipPath12">
      <path
         d="M 0,0 H 1746.875 V 1240.625 H 0 Z"
         transform="matrix(0.31999999,0,0,0.31999999,-53.347835,-188.46044)"
         clip-rule="evenodd"
         id="path12" />
    </clipPath>
    <rect
       x="428.15833"
       y="220.79433"
       width="227.24088"
       height="74.135315"
       id="rect1" />
  </defs>
  <sodipodi:namedview
     id="namedview1"
     pagecolor="#ffffff"
     bordercolor="#000000"
     borderopacity="0.25"
     inkscape:showpageshadow="2"
     inkscape:pageopacity="0.0"
     inkscape:pagecheckerboard="false"
     inkscape:deskcolor="#d1d1d1"
     inkscape:clip-to-page="false"
     inkscape:zoom="1.861461"
     inkscape:cx="236.10487"
     inkscape:cy="31.426928"
     inkscape:window-width="1920"
     inkscape:window-height="974"
     inkscape:window-x="-11"
     inkscape:window-y="-11"
     inkscape:window-maximized="1"
     inkscape:current-layer="g1">
    <inkscape:page
       x="0"
       y="0"
       inkscape:label="1"
       id="page1"
       width="460"
       height="100"
       margin="0"
       bleed="0" />
  </sodipodi:namedview>
  <g
     id="g1"
     inkscape:groupmode="layer"
     inkscape:label="1"
     transform="translate(-53.347836,-167.32687)">
    <g
       id="g4"
       transform="translate(23.032525,11.874998)">
      <g
         id="g5" />
      <path
         id="path5"
         d="m 7.8497827,-5.6954805 c 0,0.2461444 -0.1059788,0.3692166 -0.3145178,0.3692166 -0.2051203,0 -0.3076805,-0.1230722 -0.3076805,-0.3692166 V -7.8150573 H 4.7524657 v 7.21339852 h 1.6067759 c 0.2546911,0 0.3828913,0.0991415 0.3828913,0.29400582 0,0.20512034 -0.1282002,0.307680505666 -0.3828913,0.307680505666 H 2.5508407 c -0.2564004,0 -0.3828913,-0.102560165666 -0.3828913,-0.307680505666 0,-0.19486432 0.1264909,-0.29400582 0.3828913,-0.29400582 H 4.143942 V -7.8150573 H 1.6688233 v 2.1195768 c 0,0.2461444 -0.099141,0.3692166 -0.2940059,0.3692166 -0.2102483,0 -0.3145178,-0.1230722 -0.3145178,-0.3692166 V -8.423581 H 7.8497827 Z M 12.56926,-8.1295751 c 0,0.2102483 -0.12991,0.3145178 -0.389729,0.3145178 h -0.834156 v 3.1383412 h 4.006684 v -3.1383412 h -0.840993 c -0.246145,0 -0.369217,-0.1042695 -0.369217,-0.3145178 0,-0.1948644 0.123072,-0.2940059 0.369217,-0.2940059 h 1.859757 c 0.246145,0 0.369217,0.099141 0.369217,0.2940059 0,0.2102483 -0.119654,0.3145178 -0.355542,0.3145178 h -0.423915 v 7.21339852 h 0.717921 c 0.246144,0 0.369217,0.0991415 0.369217,0.29400582 0,0.20512034 -0.123073,0.307680505666 -0.369217,0.307680505666 h -2.167438 c -0.246145,0 -0.369217,-0.102560165666 -0.369217,-0.307680505666 0,-0.19486432 0.123072,-0.29400582 0.369217,-0.29400582 h 0.840993 V -4.0681925 h -4.006684 v 3.46653372 h 0.834156 c 0.259819,0 0.389729,0.0991415 0.389729,0.29400582 0,0.20512034 -0.12991,0.307680505666 -0.389729,0.307680505666 h -2.146926 c -0.2598191,0 -0.3897286,-0.102560165666 -0.3897286,-0.307680505666 0,-0.19486432 0.1299095,-0.29400582 0.3897286,-0.29400582 h 0.704246 V -7.8150573 h -0.423915 c -0.109397,0 -0.196574,-0.027349 -0.259819,-0.082048 -0.064955,-0.054699 -0.095723,-0.1316189 -0.095723,-0.2324697 0,-0.1948644 0.123072,-0.2940059 0.369217,-0.2940059 h 1.85292 c 0.259819,0 0.389729,0.099141 0.389729,0.2940058 z m 12.549946,1.8187336 c 0,0.2461444 -0.09914,0.3692166 -0.294006,0.3692166 -0.20512,0 -0.307681,-0.1230722 -0.307681,-0.3692166 v -1.5042158 h -4.321201 v 3.1383412 h 2.167438 v -0.7042465 c 0,-0.2546911 0.09743,-0.3828913 0.294006,-0.3828913 0.20512,0 0.30768,0.1282002 0.30768,0.3828913 v 2.0170166 c 0,0.2564004 -0.10256,0.3828913 -0.30768,0.3828913 -0.196574,0 -0.294006,-0.1264909 -0.294006,-0.3828913 v -0.7042465 h -2.167438 v 3.46653372 h 4.642557 V -2.4203924 c 0,-0.2546911 0.09743,-0.3828913 0.294005,-0.3828913 0.205121,0 0.307681,0.1282002 0.307681,0.3828913 V 2.7545666e-5 h -6.707435 c -0.246144,0 -0.369217,-0.102560165666 -0.369217,-0.307680505666 0,-0.19486432 0.123073,-0.29400582 0.369217,-0.29400582 h 0.840993 V -7.8150573 h -0.840993 c -0.246144,0 -0.369217,-0.1042695 -0.369217,-0.3145178 0,-0.1948644 0.123073,-0.2940059 0.369217,-0.2940059 h 6.38608 z m 14.821653,-2.3178598 c 0.629036,0 1.157221,0.1162349 1.586264,0.3487046 0.427334,0.2324697 0.755527,0.4615207 0.984578,0.6837344 V -8.068039 c 0,-0.2358884 0.10256,-0.355542 0.307681,-0.355542 0.20512,0 0.30768,0.1230722 0.30768,0.3692166 v 1.7435229 c 0,0.2461444 -0.10256,0.3692166 -0.30768,0.3692166 -0.119654,0 -0.198283,-0.030768 -0.239308,-0.095723 -0.03761,-0.063245 -0.05983,-0.1538403 -0.06837,-0.2734938 -0.02393,-0.2957151 -0.157259,-0.5743369 -0.403403,-0.834156 -0.242726,-0.2598191 -0.557244,-0.4666488 -0.943554,-0.6221984 -0.382891,-0.1589682 -0.791422,-0.239307 -1.223885,-0.239307 -0.656385,0 -1.213628,0.1760616 -1.668312,0.5264755 -0.451264,0.3469952 -0.786294,0.7692013 -1.005089,1.2649087 -0.215377,0.4974169 -0.321355,0.9623563 -0.321355,1.3948183 v 1.1486739 c 0,0.5435689 0.143584,1.0700444 0.430752,1.5794266 0.287169,0.5110915 0.680316,0.9264602 1.182861,1.24439672 0.500835,0.31964586 1.049532,0.47861412 1.6478,0.47861412 0.523057,0 0.991415,-0.10939751 1.401656,-0.32819254 0.413659,-0.2222137 0.813644,-0.5709183 1.196535,-1.0461137 0.05812,-0.085467 0.140165,-0.1299096 0.246144,-0.1299096 0.0906,0 0.164097,0.027349 0.218795,0.082048 0.0547,0.054699 0.08205,0.1213628 0.08205,0.198283 0,0.1470029 -0.198283,0.406822 -0.594849,0.77945724 -0.360669,0.34699524 -0.764073,0.60852367 -1.21021,0.78629463 -0.442718,0.17777096 -0.888854,0.26665644 -1.340119,0.26665644 -0.688863,0 -1.331573,-0.18802698 -1.928131,-0.56066226 C 37.686245,-0.69396293 37.214468,-1.1759957 36.864054,-1.7640074 36.517059,-2.3554377 36.344416,-2.962252 36.344416,-3.582741 v -1.3264449 c 0,-0.5333128 0.138456,-1.0888471 0.417078,-1.668312 0.282041,-0.5777556 0.693991,-1.0632071 1.23756,-1.4563544 0.546987,-0.396566 1.193116,-0.594849 1.941805,-0.594849 z m 12.226882,8.02704252 h 0.505963 c 0.23247,0 0.348705,0.0991415 0.348705,0.29400582 0,0.20512034 -0.123072,0.307680505666 -0.369217,0.307680505666 H 50.34217 c -0.246145,0 -0.369217,-0.102560165666 -0.369217,-0.307680505666 0,-0.19486432 0.123072,-0.29400582 0.369217,-0.29400582 h 1.196535 L 50.697712,-2.8169584 h -3.972497 l -0.820482,2.21529962 h 1.189698 c 0.246145,0 0.369217,0.0991415 0.369217,0.29400582 0,0.20512034 -0.123072,0.307680505666 -0.369217,0.307680505666 h -2.311022 c -0.256401,0 -0.382892,-0.102560165666 -0.382892,-0.307680505666 0,-0.19486432 0.119654,-0.29400582 0.36238,-0.29400582 h 0.505963 l 2.680239,-7.21339852 h -1.811896 c -0.2564,0 -0.382891,-0.1042695 -0.382891,-0.3145178 0,-0.1948644 0.126491,-0.2940059 0.382891,-0.2940059 h 3.069968 z M 46.950847,-3.4186447 h 3.521232 l -1.681986,-4.3964126 h -0.218795 z m 13.997754,-2.2768358 c 0,0.2461444 -0.105979,0.3692166 -0.314518,0.3692166 -0.205121,0 -0.307681,-0.1230722 -0.307681,-0.3692166 v -2.1195768 h -2.475118 v 7.21339852 h 1.606776 c 0.254691,0 0.382891,0.0991415 0.382891,0.29400582 0,0.20512034 -0.1282,0.307680505666 -0.382891,0.307680505666 h -3.808401 c -0.256401,0 -0.382892,-0.102560165666 -0.382892,-0.307680505666 0,-0.19486432 0.126491,-0.29400582 0.382892,-0.29400582 H 57.24276 V -7.8150573 h -2.475119 v 2.1195768 c 0,0.2461444 -0.09914,0.3692166 -0.294006,0.3692166 -0.210248,0 -0.314517,-0.1230722 -0.314517,-0.3692166 V -8.423581 h 6.789483 z m 0,0"
         style="fill:#000000;fill-opacity:1;fill-rule:nonzero;stroke:none"
         aria-label="THE CAT"
         transform="matrix(2.2852439,0,0,2.2852439,147.04961,187.04556)" />
    </g>
    <g
       id="g6"
       transform="translate(14.313778,11.874998)">
      <g
         id="g7" />
      <path
         id="path7"
         d="m 6.5473493,-7.3486577 c 0,0.1901618 -0.1154553,0.2852427 -0.3463661,0.2852427 H 4.3061568 v 6.51983272 h 1.8948264 c 0.2309108,0 0.3463661,0.0882894 0.3463661,0.26486821 0,0.18676604 -0.1154553,0.27845118855 -0.3463661,0.27845118855 H 1.8544281 c -0.2224214,0 -0.3327832,-0.0916851486 -0.3327832,-0.27845118855 0,-0.17657881 0.1103618,-0.26486821 0.3327832,-0.26486821 H 3.7628374 V -7.063415 H 1.8544281 c -0.2224214,0 -0.3327832,-0.095081 -0.3327832,-0.2852427 0,-0.1765788 0.1103618,-0.2648682 0.3327832,-0.2648682 h 4.3465551 c 0.2309108,0 0.3463661,0.088289 0.3463661,0.2648682 z m 5.4637557,-0.4482385 c 0.524643,0 0.932132,0.078102 1.222469,0.2309107 0.293732,0.1545065 0.543319,0.3225959 0.747064,0.5025705 v -0.1222469 c 0,-0.1358298 0.01528,-0.2394001 0.04754,-0.3124086 0.03056,-0.076404 0.105268,-0.1154554 0.22412,-0.1154554 0.185068,0 0.278451,0.1120596 0.278451,0.3327831 v 1.4397964 c 0,0.2309108 -0.09338,0.3463661 -0.278451,0.3463661 -0.100175,0 -0.16809,-0.028864 -0.203745,-0.088289 -0.03735,-0.062821 -0.05943,-0.1494128 -0.06791,-0.2580767 -0.02717,-0.3888129 -0.227515,-0.7198982 -0.597652,-0.9915579 -0.371834,-0.2716597 -0.820072,-0.4074895 -1.344715,-0.4074895 -0.570485,0 -1.044192,0.1477149 -1.419422,0.441447 -0.371834,0.2954299 -0.556902,0.6638684 -0.556902,1.1070132 0,0.3718343 0.112059,0.6638684 0.339574,0.8761026 0.225817,0.2088384 0.470311,0.3497618 0.733481,0.4210725 0.261473,0.067915 0.597652,0.1392256 1.005141,0.2105363 0.533133,0.086591 0.930435,0.1680894 1.188512,0.2444937 0.258076,0.078102 0.50257,0.1952554 0.733481,0.3531576 0.505966,0.3531576 0.760647,0.869311 0.760647,1.5484603 0,0.4261661 -0.118851,0.8115833 -0.353158,1.1545537 -0.236004,0.33957462 -0.563694,0.60783857 -0.984766,0.80139611 -0.421073,0.19355753 -0.899873,0.29203417 -1.433005,0.29203417 -0.950809,0 -1.70806,-0.29542992 -2.2683585,-0.88968551 v 0.34636612 c 0,0.10526813 -0.025468,0.18676604 -0.074706,0.24449373 -0.050936,0.05942556 -0.1188511,0.0882893986 -0.2037448,0.0882893986 -0.1765788,0 -0.2648682,-0.1154553686 -0.2648682,-0.3463661186 v -1.5620433 c 0,-0.2207235 0.088289,-0.3327831 0.2648682,-0.3327831 0.1663916,0 0.2597746,0.1154554 0.2784512,0.3463661 0.016979,0.2954299 0.1307362,0.5602982 0.3395741,0.7946046 0.207141,0.2360044 0.482196,0.42446832 0.821771,0.56369391 0.34297,0.13582985 0.713106,0.20374478 1.107013,0.20374478 0.415979,0 0.794605,-0.0747064 1.134179,-0.22411925 0.342971,-0.15280858 0.611235,-0.3599491 0.801396,-0.61802584 0.193558,-0.2580767 0.292034,-0.5450172 0.292034,-0.8625195 0,-0.2394001 -0.05094,-0.4584258 -0.149412,-0.6587748 -0.100175,-0.2037448 -0.242796,-0.3667406 -0.427864,-0.4889874 -0.1596,-0.1171533 -0.344669,-0.2037448 -0.556903,-0.2580768 -0.213932,-0.057728 -0.43126,-0.1086638 -0.651983,-0.1494128 -0.217328,-0.040749 -0.359949,-0.064519 -0.427864,-0.074706 -0.507664,-0.095081 -0.923643,-0.1935575 -1.249635,-0.2988257 -0.322596,-0.1035702 -0.618025,-0.293732 -0.8896848,-0.5704853 -0.2716597,-0.2801491 -0.4074895,-0.6740557 -0.4074895,-1.1817197 0,-0.388813 0.1103617,-0.7419706 0.3327831,-1.0594728 0.2207232,-0.3158044 0.5229442,-0.5653918 0.9032682,-0.7470642 0.383719,-0.1799746 0.803094,-0.2716597 1.256426,-0.2716597 z m 15.301233,0.4482385 c 0,0.1901618 -0.115456,0.2852427 -0.346367,0.2852427 h -1.039098 v 4.5978404 c 0,0.3531576 0.08999,0.6961279 0.27166,1.0255153 0.179974,0.3310853 0.429562,0.59765135 0.747064,0.80139613 0.320898,0.20374477 0.679149,0.30561716 1.073056,0.30561716 0.397302,0 0.755553,-0.10187239 1.073056,-0.30561716 0.320898,-0.20374478 0.570485,-0.47031083 0.747064,-0.80139613 0.179974,-0.3293874 0.271659,-0.6723577 0.271659,-1.0255153 V -7.063415 h -1.025515 c -0.230911,0 -0.346366,-0.095081 -0.346366,-0.2852427 0,-0.1765788 0.115455,-0.2648682 0.346366,-0.2648682 h 2.064614 c 0.220723,0 0.332783,0.088289 0.332783,0.2648682 0,0.1001745 -0.03056,0.173183 -0.08829,0.2173277 -0.05433,0.045843 -0.132434,0.067915 -0.23091,0.067915 h -0.495779 v 4.5978404 c 0,0.4533321 -0.11206,0.8879876 -0.332783,1.3039665 -0.222422,0.41258318 -0.53483,0.74536631 -0.937226,0.9983494 -0.404094,0.24788947 -0.86252,0.37353208 -1.378673,0.37353208 -0.507664,0 -0.964392,-0.12564261 -1.371882,-0.37353208 -0.404094,-0.25298309 -0.716502,-0.58576622 -0.937226,-0.9983494 -0.222421,-0.4159789 -0.332783,-0.8506344 -0.332783,-1.3039665 V -7.063415 h -0.488987 c -0.108664,0 -0.193558,-0.02377 -0.251286,-0.074706 -0.05943,-0.049238 -0.08829,-0.1188512 -0.08829,-0.2105363 0,-0.1765788 0.115455,-0.2648682 0.346366,-0.2648682 h 2.071405 c 0.230911,0 0.346367,0.088289 0.346367,0.2648682 z M 38.1193,-0.78807601 h 0.02717 V -7.063415 h -1.039098 c -0.222422,0 -0.332784,-0.095081 -0.332784,-0.2852427 0,-0.1765788 0.110362,-0.2648682 0.332784,-0.2648682 h 2.078196 c 0.220724,0 0.332783,0.088289 0.332783,0.2648682 0,0.1901618 -0.106966,0.2852427 -0.3192,0.2852427 H 38.689785 V -2.6288145e-4 H 37.98347 L 33.983281,-6.8121298 h -0.02038 v 6.26854752 H 35.002 c 0.220723,0 0.332783,0.0882894 0.332783,0.26486821 0,0.18676604 -0.11206,0.27845118855 -0.332783,0.27845118855 h -2.0714 c -0.230911,0 -0.346366,-0.0916851486 -0.346366,-0.27845118855 0,-0.17657881 0.110361,-0.26486821 0.332783,-0.26486821 h 0.495779 V -7.063415 h -0.760648 c -0.222421,0 -0.332783,-0.095081 -0.332783,-0.2852427 0,-0.1765788 0.110362,-0.2648682 0.332783,-0.2648682 h 1.45338 z m 9.328115,-3.45007819 v 0.8625196 c 0,0.5891619 -0.140924,1.1443664 -0.421073,1.6639156 -0.276753,0.5212471 -0.650285,0.93722598 -1.120596,1.24963463 -0.472009,0.30901291 -0.977975,0.46182148855 -1.521294,0.46182148855 h -3.00184 c -0.230911,0 -0.346366,-0.0916851486 -0.346366,-0.27845118855 0,-0.17657881 0.110362,-0.26486821 0.332783,-0.26486821 h 0.495779 V -7.063415 h -0.495779 c -0.105268,0 -0.186766,-0.02377 -0.244494,-0.074706 -0.05943,-0.049238 -0.08829,-0.1188512 -0.08829,-0.2105363 0,-0.1765788 0.115455,-0.2648682 0.346366,-0.2648682 h 3.00184 c 0.543319,0 1.049285,0.1562043 1.521294,0.468613 0.470311,0.3124086 0.843843,0.7266897 1.120596,1.2428431 0.280149,0.5127577 0.421073,1.0662643 0.421073,1.6639156 z m -0.54332,0.9711834 v -1.0798473 c 0,-0.4516342 -0.118851,-0.8896855 -0.353157,-1.310758 C 46.314933,-6.0820444 46.004223,-6.421619 45.620503,-6.6763 45.24018,-6.9343767 44.846273,-7.063415 44.438784,-7.063415 h -2.030657 v 6.51983272 h 2.030657 c 0.407489,0 0.801396,-0.13073623 1.181719,-0.39390656 0.38372,-0.26147246 0.69443,-0.60444286 0.930435,-1.02551536 0.234306,-0.4244683 0.353157,-0.8591238 0.353157,-1.3039666 z m 7.779655,-2.4381457 c 0,0.2224213 -0.08829,0.3327831 -0.264868,0.3327831 -0.186766,0 -0.278451,-0.1103618 -0.278451,-0.3327831 V -7.063415 h -3.905109 v 2.8388438 h 1.95595 v -0.6384003 c 0,-0.2343065 0.08999,-0.3531576 0.27166,-0.3531576 0.185068,0 0.278451,0.1188511 0.278451,0.3531576 v 1.82012 c 0,0.2309107 -0.09338,0.3463661 -0.278451,0.3463661 -0.181672,0 -0.27166,-0.1154554 -0.27166,-0.3463661 v -0.6384003 h -1.95595 v 3.13766952 h 4.197143 V -2.1871235 c 0,-0.2309107 0.08829,-0.3463661 0.264868,-0.3463661 0.190162,0 0.285243,0.1154554 0.285243,0.3463661 v 2.18686061855 h -6.071595 c -0.222421,0 -0.332783,-0.0916851486 -0.332783,-0.27845118855 0,-0.17657881 0.110362,-0.26486821 0.332783,-0.26486821 h 0.760648 V -7.063415 h -0.760648 c -0.222421,0 -0.332783,-0.095081 -0.332783,-0.2852427 0,-0.1765788 0.110362,-0.2648682 0.332783,-0.2648682 h 5.772769 z m 7.983399,0.1969532 c 0,0.8828941 -0.601047,1.5280858 -1.799745,1.9355754 l -0.07471,0.027166 c 0.03056,0.027166 0.130737,0.1001745 0.298826,0.2173277 0.171485,0.1137575 0.373532,0.3039193 0.604443,0.5704854 0.366741,0.4176768 0.842145,1.1545537 1.426213,2.21402652 h 0.468613 c 0.212234,0 0.3192,0.0882894 0.3192,0.26486821 0,0.18676604 -0.112059,0.27845118855 -0.332783,0.27845118855 H 62.816562 L 62.76223,-0.09534378 C 62.344553,-0.84240795 61.996489,-1.4196848 61.71634,-1.8271744 61.434493,-2.2346639 61.162834,-2.553864 60.901361,-2.7847748 60.638191,-3.0156855 60.325782,-3.2211282 59.964135,-3.4028006 h -1.73183 v 2.85921832 h 1.039098 c 0.220724,0 0.332783,0.0882894 0.332783,0.26486821 0,0.18676604 -0.112059,0.27845118855 -0.332783,0.27845118855 h -2.349856 c -0.230911,0 -0.346366,-0.0916851486 -0.346366,-0.27845118855 0,-0.17657881 0.115455,-0.26486821 0.346366,-0.26486821 h 0.760647 V -7.063415 h -0.760647 c -0.230911,0 -0.346366,-0.095081 -0.346366,-0.2852427 0,-0.1765788 0.115455,-0.2648682 0.346366,-0.2648682 h 3.361788 c 0.380324,0 0.753856,0.093383 1.120597,0.2784512 0.370136,0.1816724 0.674055,0.4346555 0.91006,0.7606471 0.234306,0.3225959 0.353157,0.6774514 0.353157,1.0662643 z m -0.543319,-0.027166 c 0,-0.2716597 -0.09508,-0.5246428 -0.285243,-0.7606472 -0.186766,-0.2394001 -0.421072,-0.427864 -0.706315,-0.5636939 -0.281847,-0.1358298 -0.563694,-0.2037447 -0.848937,-0.2037447 h -2.05103 v 3.117295 h 1.541669 c 0.383719,0 0.757251,-0.064519 1.120596,-0.1969533 0.36674,-0.1358298 0.66217,-0.3259916 0.889685,-0.5704853 0.225817,-0.2444938 0.339575,-0.5178513 0.339575,-0.8217706 z m 16.937982,0.387115 c 0,0.2224214 -0.09338,0.3327832 -0.278451,0.3327832 -0.186766,0 -0.278451,-0.1103618 -0.278451,-0.3327832 V -7.063415 h -2.241193 v 6.51983272 h 1.45338 c 0.23091,0 0.346366,0.0882894 0.346366,0.26486821 0,0.18676604 -0.115456,0.27845118855 -0.346366,0.27845118855 h -3.436496 c -0.23091,0 -0.346366,-0.0916851486 -0.346366,-0.27845118855 0,-0.17657881 0.115456,-0.26486821 0.346366,-0.26486821 h 1.439797 V -7.063415 h -2.241193 v 1.9152008 c 0,0.2224214 -0.08829,0.3327832 -0.264868,0.3327832 -0.190162,0 -0.285243,-0.1103618 -0.285243,-0.3327832 v -2.4653117 h 6.132718 z m 4.268453,-2.2004435 c 0,0.1901618 -0.115455,0.2852427 -0.346366,0.2852427 h -0.760647 v 2.8388438 h 3.626657 V -7.063415 h -0.760647 c -0.222422,0 -0.332783,-0.095081 -0.332783,-0.2852427 0,-0.1765788 0.110361,-0.2648682 0.332783,-0.2648682 h 1.677498 c 0.220724,0 0.332783,0.088289 0.332783,0.2648682 0,0.1901618 -0.106966,0.2852427 -0.3192,0.2852427 h -0.387115 v 6.51983272 h 0.651983 c 0.220724,0 0.332784,0.0882894 0.332784,0.26486821 0,0.18676604 -0.11206,0.27845118855 -0.332784,0.27845118855 h -1.955949 c -0.222422,0 -0.332783,-0.0916851486 -0.332783,-0.27845118855 0,-0.17657881 0.110361,-0.26486821 0.332783,-0.26486821 h 0.760647 V -3.6812518 h -3.626657 v 3.13766952 h 0.760647 c 0.230911,0 0.346366,0.0882894 0.346366,0.26486821 0,0.18676604 -0.115455,0.27845118855 -0.346366,0.27845118855 h -1.949158 c -0.230911,0 -0.346366,-0.0916851486 -0.346366,-0.27845118855 0,-0.17657881 0.115455,-0.26486821 0.346366,-0.26486821 h 0.6384 V -7.063415 h -0.387115 c -0.09508,0 -0.173183,-0.02377 -0.230911,-0.074706 -0.05943,-0.049238 -0.08829,-0.1188512 -0.08829,-0.2105363 0,-0.1765788 0.110362,-0.2648682 0.332783,-0.2648682 h 1.68429 c 0.230911,0 0.346366,0.088289 0.346366,0.2648682 z m 11.338397,1.6435412 c 0,0.2224213 -0.08829,0.3327831 -0.264868,0.3327831 -0.186766,0 -0.278452,-0.1103618 -0.278452,-0.3327831 V -7.063415 h -3.905108 v 2.8388438 h 1.95595 v -0.6384003 c 0,-0.2343065 0.08999,-0.3531576 0.27166,-0.3531576 0.185068,0 0.278451,0.1188511 0.278451,0.3531576 v 1.82012 c 0,0.2309107 -0.09338,0.3463661 -0.278451,0.3463661 -0.181673,0 -0.27166,-0.1154554 -0.27166,-0.3463661 v -0.6384003 h -1.95595 v 3.13766952 h 4.197143 V -2.1871235 c 0,-0.2309107 0.08829,-0.3463661 0.264868,-0.3463661 0.190162,0 0.285242,0.1154554 0.285242,0.3463661 v 2.18686061855 h -6.071594 c -0.222421,0 -0.332783,-0.0916851486 -0.332783,-0.27845118855 0,-0.17657881 0.110362,-0.26486821 0.332783,-0.26486821 H 89.65654 V -7.063415 h -0.760647 c -0.222421,0 -0.332783,-0.095081 -0.332783,-0.2852427 0,-0.1765788 0.110362,-0.2648682 0.332783,-0.2648682 h 5.772769 z m 16.381078,0.5569023 c 0,0.2224214 -0.0934,0.3327832 -0.27845,0.3327832 -0.18677,0 -0.27845,-0.1103618 -0.27845,-0.3327832 V -7.063415 h -2.24119 v 6.51983272 h 1.45338 c 0.23091,0 0.34636,0.0882894 0.34636,0.26486821 0,0.18676604 -0.11545,0.27845118855 -0.34636,0.27845118855 h -3.4365 c -0.23091,0 -0.34637,-0.0916851486 -0.34637,-0.27845118855 0,-0.17657881 0.11546,-0.26486821 0.34637,-0.26486821 h 1.4398 V -7.063415 h -2.2412 v 1.9152008 c 0,0.2224214 -0.0883,0.3327832 -0.26486,0.3327832 -0.19017,0 -0.28525,-0.1103618 -0.28525,-0.3327832 v -2.4653117 h 6.13272 z m 8.0649,4.60463192 h 0.45503 c 0.21223,0 0.3192,0.0882894 0.3192,0.26486821 0,0.18676604 -0.11206,0.27845118855 -0.33278,0.27845118855 h -2.09178 c -0.22243,0 -0.33279,-0.0916851486 -0.33279,-0.27845118855 0,-0.17657881 0.11036,-0.26486821 0.33279,-0.26486821 h 1.07984 l -0.76064,-2.00349032 h -3.58591 l -0.74707,2.00349032 h 1.07985 c 0.22072,0 0.33278,0.0882894 0.33278,0.26486821 0,0.18676604 -0.11206,0.27845118855 -0.33278,0.27845118855 h -2.09178 c -0.23091,0 -0.34636,-0.0916851486 -0.34636,-0.27845118855 0,-0.17657881 0.11036,-0.26486821 0.33278,-0.26486821 h 0.44824 l 2.43135,-6.51983272 h -1.64354 c -0.23091,0 -0.34637,-0.095081 -0.34637,-0.2852427 0,-0.1765788 0.11546,-0.2648682 0.34637,-0.2648682 h 2.77772 z M 114.39455,-3.090392 h 3.18521 l -1.5145,-3.9730231 h -0.20375 z m 12.24846,-2.5468097 c 0,0.3090129 -0.0798,0.5976513 -0.2377,0.869311 -0.1596,0.2716597 -0.43466,0.5195492 -0.82857,0.7402727 0.57898,0.2037448 0.99835,0.4754045 1.25643,0.8149791 0.25808,0.3395746 0.38712,0.7182003 0.38712,1.1341792 0,0.3990002 -0.10527,0.7572514 -0.31241,1.0730558 -0.20884,0.31240869 -0.4822,0.56029816 -0.82177,0.74027271 -0.33958,0.17657881 -0.69104,0.26486820855 -1.05269,0.26486820855 h -4.1496 c -0.23091,0 -0.34636,-0.0916851486 -0.34636,-0.27845118855 0,-0.17657881 0.11545,-0.26486821 0.34636,-0.26486821 h 0.76065 V -7.063415 h -0.76065 c -0.23091,0 -0.34636,-0.095081 -0.34636,-0.2852427 0,-0.1765788 0.11545,-0.2648682 0.34636,-0.2648682 h 3.5112 c 0.38033,0 0.74197,0.081498 1.08664,0.2444937 0.34807,0.1596001 0.62822,0.3905108 0.84215,0.6927322 0.21223,0.2988257 0.3192,0.6451918 0.3192,1.0390983 z m -0.54332,-0.027166 c 0,-0.4108853 -0.17488,-0.7470642 -0.52295,-1.0051409 -0.34466,-0.2614724 -0.73857,-0.3939065 -1.18172,-0.3939065 h -2.20044 v 2.8388438 h 1.98312 c 0.51615,0 0.96439,-0.1307362 1.34471,-0.3939065 0.38372,-0.2614725 0.57728,-0.6112344 0.57728,-1.0458899 z m 0.57048,3.585908 c 0,-0.1714852 -0.0577,-0.3769278 -0.16978,-0.6180258 -0.10867,-0.2394001 -0.33958,-0.4635193 -0.69274,-0.6723577 -0.34976,-0.2071406 -0.85572,-0.3124087 -1.52129,-0.3124087 h -2.09178 v 3.13766952 h 2.7981 c 0.27505,0 0.54501,-0.0628213 0.80818,-0.19016179 0.26148,-0.13073623 0.47201,-0.31410653 0.63161,-0.55011093 0.1579,-0.2343064 0.2377,-0.4991747 0.2377,-0.7946046 z m 6.02576,-5.2701981 c 0,0.1901618 -0.11546,0.2852427 -0.34637,0.2852427 h -1.32434 v 6.51983272 h 3.62666 V -2.7440258 c 0,-0.2309108 0.0951,-0.3463661 0.28524,-0.3463661 0.18507,0 0.27845,0.1154553 0.27845,0.3463661 v 2.74376291855 h -6.0648 c -0.23091,0 -0.34637,-0.0916851486 -0.34637,-0.27845118855 0,-0.17657881 0.11546,-0.26486821 0.34637,-0.26486821 h 1.33113 V -7.063415 h -1.33113 c -0.23091,0 -0.34637,-0.095081 -0.34637,-0.2852427 0,-0.1765788 0.11546,-0.2648682 0.34637,-0.2648682 h 3.19879 c 0.23091,0 0.34637,0.088289 0.34637,0.2648681 z m 9.95293,1.6435412 c 0,0.2224213 -0.0883,0.3327831 -0.26487,0.3327831 -0.18677,0 -0.27845,-0.1103618 -0.27845,-0.3327831 V -7.063415 h -3.90511 v 2.8388438 h 1.95595 v -0.6384003 c 0,-0.2343065 0.09,-0.3531576 0.27166,-0.3531576 0.18507,0 0.27845,0.1188511 0.27845,0.3531576 v 1.82012 c 0,0.2309107 -0.0934,0.3463661 -0.27845,0.3463661 -0.18167,0 -0.27166,-0.1154554 -0.27166,-0.3463661 v -0.6384003 h -1.95595 v 3.13766952 h 4.19714 V -2.1871235 c 0,-0.2309107 0.0883,-0.3463661 0.26487,-0.3463661 0.19016,0 0.28524,0.1154554 0.28524,0.3463661 v 2.18686061855 h -6.07159 c -0.22242,0 -0.33278,-0.0916851486 -0.33278,-0.27845118855 0,-0.17657881 0.11036,-0.26486821 0.33278,-0.26486821 h 0.76065 V -7.063415 h -0.76065 c -0.22242,0 -0.33278,-0.095081 -0.33278,-0.2852427 0,-0.1765788 0.11036,-0.2648682 0.33278,-0.2648682 h 5.77277 z m 0,0"
         style="fill:#000000;fill-opacity:1;fill-rule:nonzero;stroke:none"
         aria-label="IS UNDER THE TABLE"
         transform="matrix(2.3006725,0,0,2.3006725,60.432787,243.0931)" />
    </g>
    <path
       id="path11"
       d="M 0,3.5 H 354.78644"
       style="fill:none;stroke:#000000;stroke-width:3;stroke-linecap:butt;stroke-linejoin:miter;stroke-miterlimit:10;stroke-dasharray:none;stroke-opacity:1"
       transform="translate(63.541646,212.61545)"
       clip-path="url(#clipPath12)" />
    <text
       xml:space="preserve"
       id="text12"
       style="font-style:normal;font-variant:normal;font-weight:normal;font-stretch:normal;font-size:42.6667px;font-family:'Open Sans';-inkscape-font-specification:'Open Sans, @wght=652';font-variant-ligatures:normal;font-variant-caps:normal;font-variant-numeric:normal;font-variant-east-asian:normal;font-variation-settings:'wght' 652;white-space:pre;shape-inside:url(#rect12);display:inline;fill:#000000"
       transform="translate(1.061195,-28.41594)"><tspan
         x="428.1582"
         y="259.61603"
         id="tspan1">^^</tspan></text>
    <text
       xml:space="preserve"
       id="text1"
       style="font-style:normal;font-variant:normal;font-weight:normal;font-stretch:normal;font-size:53.3333px;font-family:'Open Sans';-inkscape-font-specification:'Open Sans, Normal';font-variant-ligatures:normal;font-variant-caps:normal;font-variant-numeric:normal;font-variant-east-asian:normal;white-space:pre;shape-inside:url(#rect1);display:inline;fill:#000000"
       transform="translate(47.261465,-35.399702)"><tspan
         x="428.1582"
         y="269.32125"
         id="tspan2">~</tspan></text>
  </g>
</svg>
